<svg xmlns="http://www.w3.org/2000/svg" width="1em" height="1em" preserveAspectRatio="xMidYMid meet" viewBox="2 2 20 20">
    <defs>
        <linearGradient id="svgIDa" x1="50%" x2="50%" y1="0%" y2="100%">
            <stop offset="0%" stop-color="#17C9FB"/>
            <stop offset="100%" stop-color="#1A74E8"/>
        </linearGradient>
    </defs>
    <path fill="url(#svgIDa)" d="M12 22C6.477 22 2 17.523 2 12S6.477 2 12 2s10 4.477 10 10c-.006 5.52-4.48 9.994-10 10Zm-4.273-7.213c-.129 0-.257.016-.383.046l-.15.041l-.594 1.017a.823.823 0 0 0 1.365.916l.062-.093l.79-1.371a1.386 1.386 0 0 0-1.1-.556h.01Zm5.484-6.127a1.944 1.944 0 0 0-.587 1.1a2.4 2.4 0 0 0 .3 1.689l3.04 5.266a.827.827 0 0 0 1.071.322a.823.823 0 0 0 .4-1.044l-.049-.1l-.8-1.391h1.19a.823.823 0 0 0 .1-1.639l-.1-.006h-2.14l-2.194-3.8l-.229-.4l-.002.003ZM6.26 12.85a.817.817 0 0 0-.815.821c0 .414.308.764.719.817l.1.005h7.48a1.16 1.16 0 0 0-.017-1.067a1.034 1.034 0 0 0-.793-.571l-.121-.006h-2.551L13.79 6.74a.828.828 0 0 0 .082-.625a.824.824 0 0 0-1.447-.29l-.062.092l-.363.634l-.359-.634a.827.827 0 0 0-1.072-.322a.825.825 0 0 0-.4 1.045l.049.1l.83 1.46l-2.685 4.65H6.26Z"/>
</svg>
